<svg xmlns="http://www.w3.org/2000/svg" xmlns:xlink="http://www.w3.org/1999/xlink" x="0px" y="0px"
   viewBox="0 0 241 241" xml:space="preserve">
   <g>
      <g>
         <path d="M49.4,241.5c-3,0-6,0-8.9,0c-0.7-0.2-1.3-0.4-2-0.5c-17.7-2.6-32.8-16.7-36.1-34.2c-3.1-16.6,1.6-30.9,14.4-41.9
            c12.6-10.8,27.2-13.2,42.9-7.8c2.3,0.8,4.6,1.9,7.1,3c0-1.1,0-2,0-3c0-40.9,0-81.9,0-122.8c0-6.7,3.5-11.1,9.8-12.1
            c5.7-0.9,11.5-1.6,17.2-2.4c19.2-2.7,38.5-5.5,57.7-8.3c20.2-2.9,40.5-5.8,60.7-8.7c5-0.7,10-1.6,15.1-2.3c1.4,0,2.8,0,4.2,0
            c7.1,2.9,8.9,5.6,8.9,13.4c0,53.5,0,107-0.1,160.5c0,4.3-0.4,8.7-1.5,12.8c-5.5,22.5-28.5,36.6-51.2,31.7c-23-5-38-27.6-33.6-50.6
            c5-26.3,31.9-41.8,57.2-33c2.5,0.9,4.8,2,7.3,3.1c0-23.7,0-47.3,0-71C175.2,73.5,132,79.6,88.5,85.9c0,1.2,0,2.2,0,3.2
            c0,36.7,0.1,73.4-0.1,110.1c-0.1,17.7-11.7,33.5-28.4,39.5C56.6,239.9,53,240.6,49.4,241.5z"/>
      </g>
   </g>
</svg>
