<svg id="Calque_1" data-name="Calque 1" xmlns="http://www.w3.org/2000/svg" xmlns:xlink="http://www.w3.org/1999/xlink" viewBox="0 0 660 248.03"><defs><style>.cls-1,.cls-2,.cls-3{stroke:#000;}.cls-1{stroke-miterlimit:10;fill:url(#Dégradé_sans_nom_16);}.cls-2{fill:#b3b3b3;}.cls-2,.cls-3{stroke-linecap:round;stroke-linejoin:round;stroke-width:0.5px;}.cls-3{fill:#fff;}</style><radialGradient id="Dégradé_sans_nom_16" cx="330" cy="124.03" r="278.33" gradientTransform="translate(0 77.54) scale(1 0.37)" gradientUnits="userSpaceOnUse"><stop offset="0" stop-color="#f2f2f2"/><stop offset="1" stop-color="#e6e6e6"/></radialGradient></defs><title>keyboard</title><rect class="cls-1" x="0.5" y="0.53" width="659" height="247" rx="3"/><g id="keyboard"><rect id="spacebar" class="cls-2" x="188" y="200.53" width="217" height="38.5" rx="3"/><g id="letters"><rect class="cls-3" x="64.27" y="78.53" width="38" height="33" rx="3"/><rect class="cls-3" x="109.04" y="78.53" width="38" height="33" rx="3"/><rect class="cls-3" x="153.81" y="78.53" width="38" height="33" rx="3"/><rect class="cls-3" x="198.58" y="78.53" width="38" height="33" rx="3"/><rect class="cls-3" x="243.35" y="78.53" width="38" height="33" rx="3"/><rect class="cls-3" x="288.12" y="78.53" width="38" height="33" rx="3"/><rect class="cls-3" x="332.88" y="78.53" width="38" height="33" rx="3"/><rect class="cls-3" x="377.65" y="78.53" width="38" height="33" rx="3"/><rect class="cls-3" x="422.42" y="78.53" width="38" height="33" rx="3"/><rect class="cls-3" x="467.19" y="78.53" width="38" height="33" rx="3"/><rect class="cls-3" x="478.67" y="119.53" width="38" height="33" rx="3"/><rect class="cls-3" x="433.75" y="119.53" width="38" height="33" rx="3"/><rect class="cls-3" x="388.83" y="119.53" width="38" height="33" rx="3"/><rect class="cls-3" x="343.92" y="119.53" width="38" height="33" rx="3"/><rect class="cls-3" x="299" y="119.53" width="38" height="33" rx="3"/><rect class="cls-3" x="254.08" y="119.53" width="38" height="33" rx="3"/><rect class="cls-3" x="209.17" y="119.53" width="38" height="33" rx="3"/><rect class="cls-3" x="164.25" y="119.53" width="38" height="33" rx="3"/><rect class="cls-3" x="119.33" y="119.53" width="38" height="33" rx="3"/><rect class="cls-3" x="74.42" y="119.53" width="38" height="33" rx="3"/><rect class="cls-3" x="98" y="160.03" width="38" height="33" rx="3"/><rect class="cls-3" x="142.75" y="160.03" width="38" height="33" rx="3"/><rect class="cls-3" x="187.5" y="160.03" width="38" height="33" rx="3"/><rect class="cls-3" x="232.25" y="160.03" width="38" height="33" rx="3"/><rect class="cls-3" x="277" y="160.03" width="38" height="33" rx="3"/><rect class="cls-3" x="321.75" y="160.03" width="38" height="33" rx="3"/></g><g id="others"><rect class="cls-2" x="8.5" y="10.03" width="33" height="20" rx="3"/><rect class="cls-2" x="46.63" y="10.03" width="33" height="20" rx="3"/><rect class="cls-2" x="84.75" y="10.03" width="33" height="20" rx="3"/><rect class="cls-2" x="122.88" y="10.03" width="33" height="20" rx="3"/><rect class="cls-2" x="161" y="10.03" width="33" height="20" rx="3"/><rect class="cls-2" x="199.13" y="10.03" width="33" height="20" rx="3"/><rect class="cls-2" x="237.25" y="10.03" width="33" height="20" rx="3"/><rect class="cls-2" x="275.38" y="10.03" width="33" height="20" rx="3"/><rect class="cls-2" x="313.5" y="10.03" width="33" height="20" rx="3"/><rect class="cls-2" x="351.63" y="10.03" width="33" height="20" rx="3"/><rect class="cls-2" x="389.75" y="10.03" width="33" height="20" rx="3"/><rect class="cls-2" x="427.88" y="10.03" width="33" height="20" rx="3"/><rect class="cls-2" x="466" y="10.03" width="33" height="20" rx="3"/><rect class="cls-2" x="504.13" y="10.03" width="33" height="20" rx="3"/><rect class="cls-2" x="542.25" y="10.03" width="33" height="20" rx="3"/><rect class="cls-2" x="580.38" y="10.03" width="33" height="20" rx="3"/><rect class="cls-2" x="618.5" y="10.03" width="33" height="20" rx="3"/><rect class="cls-2" x="8.5" y="37.53" width="28" height="33" rx="3"/><rect class="cls-2" x="8.5" y="78.53" width="49" height="33" rx="3"/><rect class="cls-2" x="43.12" y="37.53" width="38" height="33" rx="3"/><rect class="cls-2" x="511.96" y="78.53" width="38" height="33" rx="3"/><rect class="cls-2" x="556.73" y="78.53" width="38" height="33" rx="3"/><rect class="cls-2" x="568.5" y="119.53" width="38" height="33" rx="3"/><rect class="cls-2" x="523.58" y="119.53" width="38" height="33" rx="3"/><rect class="cls-2" x="8.5" y="160.03" width="38" height="33" rx="3"/><rect class="cls-2" x="8.5" y="200.53" width="38" height="38.5" rx="3"/><rect class="cls-2" x="53.38" y="200.53" width="38" height="38.5" rx="3"/><rect class="cls-2" x="98.25" y="200.53" width="38" height="38.5" rx="3"/><rect class="cls-2" x="143.13" y="200.53" width="38" height="38.5" rx="3"/><rect class="cls-2" x="411.88" y="200.53" width="38" height="38.5" rx="3"/><rect class="cls-2" x="456.75" y="200.53" width="38" height="38.5" rx="3"/><rect class="cls-2" x="501.63" y="200.53" width="38" height="38.5" rx="3"/><rect class="cls-2" x="546.5" y="220.53" width="30" height="18.5" rx="3"/><rect class="cls-2" x="584" y="220.53" width="30" height="18.5" rx="3"/><rect class="cls-2" x="584" y="199.53" width="30" height="18.5" rx="3"/><rect class="cls-2" x="621.5" y="220.53" width="30" height="18.5" rx="3"/><rect class="cls-2" x="53.25" y="160.03" width="38" height="33" rx="3"/><rect class="cls-2" x="366.5" y="160.03" width="38" height="33" rx="3"/><rect class="cls-2" x="411.25" y="160.03" width="38" height="33" rx="3"/><rect class="cls-2" x="456" y="160.03" width="38" height="33" rx="3"/><rect class="cls-2" x="500.75" y="160.03" width="38" height="33" rx="3"/><rect class="cls-2" x="545.5" y="160.03" width="106" height="33" rx="3"/><rect class="cls-2" x="8.5" y="119.53" width="59" height="33" rx="3"/><path class="cls-2" d="M601.5,81.36v27.08a3,3,0,0,0,3,3h5a3,3,0,0,1,3,3v35.09a3,3,0,0,0,3,3h33a3,3,0,0,0,3-3V81.36a3,3,0,0,0-3-3h-44A3,3,0,0,0,601.5,81.36Z"/><rect class="cls-2" x="87.73" y="37.53" width="38" height="33" rx="3"/><rect class="cls-2" x="132.35" y="37.53" width="38" height="33" rx="3"/><rect class="cls-2" x="176.96" y="37.53" width="38" height="33" rx="3"/><rect class="cls-2" x="221.58" y="37.53" width="38" height="33" rx="3"/><rect class="cls-2" x="266.19" y="37.53" width="38" height="33" rx="3"/><rect class="cls-2" x="310.81" y="37.53" width="38" height="33" rx="3"/><rect class="cls-2" x="355.42" y="37.53" width="38" height="33" rx="3"/><rect class="cls-2" x="400.04" y="37.53" width="38" height="33" rx="3"/><rect class="cls-2" x="444.65" y="37.53" width="38" height="33" rx="3"/><rect class="cls-2" x="489.27" y="37.53" width="38" height="33" rx="3"/><rect class="cls-2" x="533.88" y="37.53" width="38" height="33" rx="3"/><rect class="cls-2" x="578.5" y="37.53" width="73" height="33" rx="3"/></g></g></svg>